<svg width="147" height="32" viewBox="0 0 147 32" fill="none" xmlns="http://www.w3.org/2000/svg"><path d="M10.409 7.925l2.87-1.657v6.904l.655.378.657-.378V6.268l2.87 1.657.656-1.135-4.182-2.415L9.753 6.79l.656 1.135zM8.705 23.091l-2.87-1.657 5.979-3.452v-.757l-.656-.379-5.979 3.452v-3.315H3.868v4.83l4.182 2.414.655-1.136z" fill="#27ADEA"/><path d="M13.935.59L.59 8.295v15.41l13.345 7.705 13.345-7.705V8.295L13.935.59zM1.901 22.948V9.052l12.034-6.948L25.97 9.052v13.896l-12.034 6.948-12.034-6.948z" fill="#27ADEA"/><path d="M19.165 8.909l2.87 1.657-8.1 4.677-8.1-4.677 2.87-1.657-.655-1.135-4.182 2.413v4.83h1.31V11.7l8.102 4.678v9.353l-2.871-1.657-.656 1.135 4.182 2.415 4.182-2.415-.656-1.135-2.87 1.657v-9.354l8.1-4.677v3.315h1.312v-4.829L19.82 7.774l-.656 1.135z" fill="#27ADEA"/><path d="M22.691 16.983v3.315l-5.98-3.452-.655.378v.758l5.98 3.452-2.871 1.657.656 1.136 4.181-2.415v-4.829h-1.31zM26.29 25.976h.15c.033 0 .065-.002.096-.003a.29.29 0 0 0 .082-.017.136.136 0 0 0 .058-.05.165.165 0 0 0 .022-.09.14.14 0 0 0-.02-.08.14.14 0 0 0-.05-.046.23.23 0 0 0-.07-.02c-.025-.002-.05-.004-.075-.004h-.194v.31zm-.148-.432h.365c.225 0 .338.092.338.276 0 .087-.025.152-.073.192a.335.335 0 0 1-.182.072l.277.427h-.158l-.262-.415h-.158v.415h-.147v-.967z" fill="#27ADEA"/><path d="M26.458 25.213a.817.817 0 0 0 0 1.631.817.817 0 0 0 0-1.631zm0 1.797a.982.982 0 1 1 .001-1.96.982.982 0 0 1 0 1.96z" fill="#27ADEA"/><path d="M49.53 19.923c-.463.623-1.263 1.476-2.26 1.476h-2.223a2.22 2.22 0 0 1-1.102-.32c-.373-.213-1.085-.943-1.298-1.263a1.791 1.791 0 0 1-.285-1.014V13.2c0-.337.071-.675.285-.995.213-.303.925-1.068 1.298-1.281.285-.16.712-.32 1.102-.32h2.224c.996 0 1.796.87 2.258 1.476.143.195.214.338.374.622l-1.814.516s-.534-.658-.8-.818c-.018-.018-.054-.018-.072-.018H45.12a.187.187 0 0 0-.072.018c-.23.125-.622.498-.8.783-.017.035-.017.16-.017.195v5.407c0 .213.55.676.817.818.018.018.107.018.125.018H47.2c.017 0 .053 0 .089-.018.373-.178.8-.836.8-.836l1.814.48c-.142.32-.231.48-.373.676M51.54 19.07h2.187v2.24H51.54v-2.24zM61.34 21.31v-4.393h-3.878v4.393h-1.867V10.675h1.867v4.464h3.877v-4.464h1.868V21.31h-1.868zM65.074 19.07h2.188v2.24h-2.188v-2.24zM78.858 13.147s0-.09-.018-.125c-.106-.195-.39-.552-.569-.569h-3.22v2.88h3.13c.161 0 .517-.337.659-.586 0 0 .018-.035.018-.071v-1.53zm1.547 2.632c-.16.231-.711.765-.96.942a1.656 1.656 0 0 1-.463.249l2.117 4.34H79.07l-1.973-4.198h-2.046v4.198h-1.867V10.675h4.997c.427 0 .907.142 1.263.39.249.179.8.747.96.98.213.32.32.71.32 1.084v1.565c0 .391-.107.765-.32 1.085M84.692 18.767s0 .053.018.07c.213.321.586.659.782.765.035.018.07.018.089.018h2.56s.054 0 .09-.018c.195-.107.569-.444.782-.765.018-.035.018-.07.018-.07V13.27s0-.071-.018-.089c-.214-.32-.587-.676-.783-.782-.035-.018-.07-.018-.089-.018h-2.56s-.071 0-.09.018c-.195.106-.568.462-.781.782-.018.035-.018.089-.018.089v5.496zm5.922 1.031c-.232.303-.925 1.067-1.299 1.28-.284.178-.729.32-1.102.32H85.51a2.23 2.23 0 0 1-1.103-.32c-.374-.213-1.085-.977-1.298-1.28a1.793 1.793 0 0 1-.285-1.013v-5.568c0-.337.071-.693.285-1.013.213-.302.924-1.067 1.298-1.28a2.23 2.23 0 0 1 1.103-.32h2.703c.373 0 .818.142 1.102.32.374.213 1.067.978 1.3 1.28.212.32.284.676.284 1.013v5.568c0 .337-.072.693-.285 1.013zM98.849 18.82v-1.263a.213.213 0 0 0-.018-.089c-.16-.284-.498-.604-.659-.604h-3.111v2.667h3.13c.16 0 .515-.32.64-.587 0 0 .018-.053.018-.124zm0-4.393v-1.262c0-.036-.018-.09-.018-.09-.16-.284-.498-.622-.659-.622h-3.111v2.686h3.13c.16 0 .515-.321.64-.588 0 0 .018-.035.018-.124zm1.565 5.531c-.16.232-.694.783-.943.96-.356.25-.853.392-1.28.392h-4.998V10.675h4.998c.462 0 .924.16 1.28.409.249.177.783.728.943.96.231.338.302.747.302 1.102v1.317c0 .747-.285 1.138-.694 1.547.409.409.694.782.694 1.53v1.35c0 .375-.089.748-.302 1.068M103.242 10.675h1.867V21.31h-1.867V10.675zM113.397 21.31l-3.681-7.06v7.06h-1.868V10.675h2.011l3.645 7.149v-7.15h1.868V21.31h-1.975zM125.42 19.798c-.213.32-.924 1.067-1.298 1.28-.284.16-.729.32-1.103.32h-3.094c-1.049 0-1.797-.853-2.259-1.476-.143-.195-.178-.284-.32-.55l1.761-.587s.355.497.782.817c0 0 .036.018.124.018h2.917c.071 0 .107-.018.107-.018.267-.142.801-.675.801-.817v-1.05c0-.16-.126-.284-.214-.302L119 16.117c-.908-.25-1.387-1.121-1.387-1.939v-.96c0-.303.052-.694.266-1.014.213-.32.943-1.067 1.317-1.28.284-.16.71-.32 1.102-.32h2.632c1.067 0 1.797.87 2.259 1.476.142.195.231.355.355.622l-1.795.515s-.41-.586-.784-.817c0 0-.017-.018-.106-.018h-2.508c-.071 0-.107.018-.107.018-.283.142-.764.64-.764.782v.89c0 .16.106.284.196.302l4.642 1.351c.906.249 1.387 1.139 1.387 1.94v1.12c0 .302-.054.693-.285 1.013M129.582 18.767s0 .053.018.07c.213.321.586.659.782.765a.193.193 0 0 0 .089.018h2.561s.053 0 .089-.018c.196-.107.569-.444.783-.765.018-.035.018-.07.018-.07V13.27s0-.071-.018-.089c-.214-.32-.587-.676-.783-.782-.036-.018-.071-.018-.089-.018h-2.561s-.071 0-.089.018c-.195.106-.569.462-.782.782-.018.035-.018.089-.018.089v5.496zm5.923 1.031c-.232.303-.926 1.067-1.299 1.28-.285.178-.729.32-1.102.32h-2.703c-.392 0-.819-.142-1.103-.32-.374-.213-1.085-.977-1.299-1.28a1.798 1.798 0 0 1-.284-1.013v-5.568c0-.337.071-.693.284-1.013.214-.302.925-1.067 1.299-1.28.284-.178.711-.32 1.103-.32h2.703c.373 0 .817.142 1.102.32.373.213 1.067.978 1.299 1.28.213.32.284.676.284 1.013v5.568c0 .337-.071.693-.284 1.013zM143.633 21.31l-3.681-7.06v7.06h-1.869V10.675h2.011l3.646 7.149v-7.15h1.867V21.31h-1.974z" fill="#000"/></svg>