<svg width="56" height="56" viewBox="0 0 56 56" xmlns="http://www.w3.org/2000/svg"><title>Git + GitHub</title><g fill="none" fill-rule="evenodd"><g stroke-width="2"><g stroke="#79B8FF"><path d="M28 14a3 3 0 1 1 0 6 3 3 0 0 1 0-6zM28 34a3 3 0 1 1-.001 6.001A3 3 0 0 1 28 34zM37 23a3 3 0 1 1 0 6 3 3 0 0 1 0-6z" stroke-linecap="round"/><path d="M28.014 34V20.5"/><path d="M22 11.117l3.75 3.75m4.576 4.576l4.516 4.516M31.06 48.981l-1.646 1.646a2 2 0 0 1-2.828 0L5.373 29.414a2 2 0 0 1 0-2.828L26.586 5.373a2 2 0 0 1 2.828 0l21.213 21.213a2 2 0 0 1 0 2.828l-.603.603-1.034 1.036" stroke-linecap="round" stroke-linejoin="round"/></g><path d="M40.68 51.927v-2.54a2.227 2.227 0 0 1 .37-1.265c-.526-.04-3.84-.371-3.84-4.302 0-1.013.305-1.839.915-2.477a4.989 4.989 0 0 1-.146-1.86c.087-.882.946-.823 2.577.178 1.277-.47 2.852-.47 4.725 0 .248-.303 2.434-1.704 2.658-.268.047.296.016.946-.093 1.95.516.524.776 1.358.78 2.501.007 2.261-1.26 3.687-3.8 4.278.24.436.355.857.346 1.264a117.22 117.22 0 0 0 0 2.614c2.43-.744 4.228-2.06 5.395-3.95.837-1.356 1.433-2.932 1.433-4.865 0-2.886-1.175-4.984-2.5-6.388C47.714 34.903 45.266 34 43 34a9.094 9.094 0 0 0-6.588 2.897C35.028 38.393 34 40.507 34 43.185c0 2.026.701 3.945 1.773 5.38 1.228 1.643 2.864 2.764 4.907 3.362z" stroke="#2088FF" stroke-linecap="round" stroke-linejoin="round"/></g></g></svg>
