<svg width="56" height="56" viewBox="0 0 56 56" xmlns="http://www.w3.org/2000/svg"><title>Learning lab for Orgs</title><g fill="none" fill-rule="evenodd"><path d="M14.7 8c.316 1.122.572 1.372 1.71 1.678-1.136.314-1.39.566-1.7 1.69-.317-1.121-.573-1.372-1.71-1.679 1.135-.313 1.389-.566 1.7-1.689zM40.7 8c.316 1.122.572 1.372 1.71 1.678-1.136.314-1.39.566-1.7 1.69-.317-1.121-.573-1.372-1.71-1.679 1.135-.313 1.389-.566 1.7-1.689zM28.022 5c.318 1.122.574 1.372 1.711 1.678-1.136.314-1.389.566-1.7 1.69-.317-1.121-.572-1.372-1.71-1.679 1.135-.313 1.39-.566 1.7-1.689z" stroke="#2088FF" stroke-width="2" stroke-linecap="round" stroke-linejoin="round"/><g transform="translate(4 9)" fill-rule="nonzero"><path d="M14.05 9.195C10.327 7.065 7.46 6 5.453 6 4.92 6 4 6.164 3.5 6.653s-.572.741-.711 1.14c-.734 2.1-1.562 6.317.078 9.286-8.767 25.38 15.513 24.92 21.207 24.92 5.695 0 29.746.456 21.037-24.908 1.112-2.2 1.404-5.119.121-9.284-.863-2.802-4.646-2.341-11.35 1.384a27.38 27.38 0 0 0-9.802-1.81c-3.358 0-6.701.605-10.03 1.814z" stroke="#79B8FF" stroke-width="2" stroke-linecap="round" stroke-linejoin="round"/><path d="M10.323 40.074c-2.442-1.02-2.93-3.308-2.93-4.834 0-1.527.488-2.45.976-3.92.489-1.47.391-2.281-.976-5.711-1.368-3.43.976-7.535 4.884-7.535 3.908 0 7.088 3.005 11.723 2.956m0 0c4.635.05 7.815-2.956 11.723-2.956 3.908 0 6.252 4.105 4.884 7.535-1.367 3.43-1.465 4.241-.976 5.71.488 1.47.976 2.394.976 3.92 0 1.527-.488 3.816-2.93 4.835" stroke="#79B8FF" stroke-width="2" stroke-linecap="round" stroke-linejoin="round"/><circle fill="#2088FF" cx="12" cy="30" r="1"/><circle fill="#2088FF" cx="13" cy="28" r="1"/><circle fill="#2088FF" cx="15" cy="28" r="1"/><circle fill="#2088FF" cx="23" cy="35" r="1"/><circle fill="#2088FF" cx="25" cy="35" r="1"/><circle fill="#2088FF" cx="17" cy="28" r="1"/><circle fill="#2088FF" cx="31" cy="28" r="1"/><circle fill="#2088FF" cx="33" cy="28" r="1"/><circle fill="#2088FF" cx="35" cy="28" r="1"/><circle fill="#2088FF" cx="12" cy="32" r="1"/><circle fill="#2088FF" cx="19" cy="30" r="1"/><circle fill="#2088FF" cx="19" cy="32" r="1"/><circle fill="#2088FF" cx="29" cy="30" r="1"/><circle fill="#2088FF" cx="29" cy="32" r="1"/><circle fill="#2088FF" cx="36" cy="30" r="1"/><circle fill="#2088FF" cx="36" cy="32" r="1"/></g></g></svg>
