  <svg width="56" height="56" viewBox="0 0 56 56" xmlns="http://www.w3.org/2000/svg"><title>Workflow consultation</title><g fill="none" fill-rule="evenodd"><path d="M17 10a22.106 22.106 0 0 0-9 9M7 38c1.891 4.27 5.065 7.785 9 10m21 0c3.934-2.222 7.106-5.736 9-10m0-19a22.2 22.2 0 0 0-9-9" stroke="#79B8FF" stroke-width="2" stroke-linecap="round"/><path d="M19 33h16V23a1 1 0 0 0-1-1H20a1 1 0 0 0-1 1v10zM16.005 33.008h22M25 47.671l1.333 1.334L29 46.338" stroke="#2088FF" stroke-width="2" stroke-linecap="round" stroke-linejoin="round"/><path d="M32.515 47.505a5.5 5.5 0 1 1-11 0 5.5 5.5 0 0 1 11 0zM11 33c-.267-1.727-1.973-3-4-3-2.08 0-3.787 1.318-4 3M7 24a3 3 0 1 0 0 6 3 3 0 0 0 0-6zM51 33c-.267-1.727-1.973-3-4-3-2.08 0-3.788 1.318-4 3M47 24a3 3 0 1 0 0 6 3 3 0 0 0 0-6zM32.009 7.507v-.15c0-1.437-1.09-2.35-2.455-2.35h-5.092c-1.365 0-2.455 1.063-2.455 2.5v7.503l2.336-2.005h5.211c1.627-.02 2.455-1.142 2.455-2.5V7.507z" stroke="#2088FF" stroke-width="2" stroke-linecap="round" stroke-linejoin="round"/><path d="M28 9a1 1 0 1 1-2 0 1 1 0 0 1 2 0z" fill="#2088FF"/><path stroke="#2088FF" stroke-width="2" stroke-linecap="round" stroke-linejoin="round" d="M23.278 26.17l1.337 1.38-1.337 1.383M28.006 29.009h2"/></g></svg>
