<svg width="56" height="56" viewBox="0 0 56 56" xmlns="http://www.w3.org/2000/svg"><title>implementation</title><g fill="none" fill-rule="evenodd"><g transform="translate(3 4)" stroke-width="2"><path d="M4 32h4a2 2 0 0 1 2 2v4a2 2 0 0 1-2 2H4a2 2 0 0 1-2-2v-2.444M45.333 15H42a2 2 0 0 0-2 2v4a2 2 0 0 0 2 2h4a2 2 0 0 0 2-2v-3.333" stroke="#2088FF" stroke-linecap="round" stroke-linejoin="round"/><circle stroke="#2088FF" cx="2" cy="33" r="2"/><circle stroke="#2088FF" transform="matrix(-1 0 0 1 96 0)" cx="48" cy="15" r="2"/><path d="M10 36h2" stroke="#2088FF" stroke-linecap="round"/><path d="M40.015 36h-2.003M12.015 19h-2.003" stroke="#79B8FF" stroke-linecap="round"/><path d="M39.996 19h-1.984" stroke="#2088FF" stroke-linecap="round"/><path stroke="#79B8FF" stroke-linejoin="round" d="M3 16h6v6H3z"/><rect stroke="#79B8FF" stroke-linejoin="round" x="41" y="33" width="6" height="6" rx="1"/><path d="M12 47H8a2 2 0 0 1-2-2v-.92m0-16.067v-5.97m0-6.128V10a2 2 0 0 1 2-2h6M38 47h4a2 2 0 0 0 2-2v-5.918m0-6.622v-5.49m0-15.944V10a2 2 0 0 0-2-2h-4" stroke="#79B8FF" stroke-linecap="round" stroke-linejoin="round"/><path d="M22.68 35.927v-2.54a2.227 2.227 0 0 1 .37-1.265c-.526-.04-3.84-.371-3.84-4.302 0-1.013.305-1.839.915-2.477a4.989 4.989 0 0 1-.146-1.86c.087-.882.946-.823 2.577.178 1.277-.47 2.852-.47 4.725 0 .248-.303 2.434-1.704 2.658-.268.047.296.016.946-.093 1.95.516.524.776 1.358.78 2.501.007 2.261-1.26 3.687-3.8 4.278.24.436.355.857.346 1.264a117.22 117.22 0 0 0 0 2.614c2.43-.744 4.228-2.06 5.395-3.95.837-1.356 1.433-2.932 1.433-4.865 0-2.886-1.175-4.984-2.5-6.388C29.714 18.903 27.266 18 25 18a9.094 9.094 0 0 0-6.588 2.897C17.028 22.393 16 24.507 16 27.185c0 2.026.701 3.945 1.773 5.38 1.228 1.643 2.864 2.764 4.907 3.362z" stroke="#2088FF" stroke-linecap="round" stroke-linejoin="round"/><path d="M34 36.999V47h-6v-3.136h-6V47h-6v-9.976m0-19.012v-4.557c0-2.336 1.383-4.466 3-5.228L34 0v18.022" stroke="#2088FF" stroke-linecap="round" stroke-linejoin="round"/></g></g></svg>
