<svg width="56" height="56" viewBox="0 0 56 56" xmlns="http://www.w3.org/2000/svg"><title>Learning lab</title><g fill="none" fill-rule="evenodd"><g transform="translate(5 5)" stroke-width="2"><path d="M2 0h13a2 2 0 0 1 2 2v10a2 2 0 0 1-2 2h-.96l-.038 3-3.98-3H2a2 2 0 0 1-2-2V2a2 2 0 0 1 2-2z" stroke="#2088FF" stroke-linecap="round" stroke-linejoin="round"/><path stroke="#2088FF" stroke-linecap="round" stroke-linejoin="round" d="M12 4.546l-5 5-2-2M44 46H31a2 2 0 0 1-2-2V34a2 2 0 0 1 2-2h.96l.038-3 3.98 3H44a2 2 0 0 1 2 2v10a2 2 0 0 1-2 2z"/><g stroke="#2088FF" stroke-linecap="round" stroke-linejoin="round"><path d="M39.62 41.103l-4.243-4.243M39.61 36.887l-4.243 4.243"/></g><path d="M2 18v22a2 2 0 0 0 2 2h21" stroke="#79B8FF" stroke-linecap="round" stroke-linejoin="round"/><rect stroke="#2088FF" x="7" y="21" width="5" height="5" rx="1"/><path d="M17 21h20M17 26h12M21 9h16M21 14h8M17 32h8M17 37h8" stroke="#79B8FF" stroke-linecap="round" stroke-linejoin="round"/><rect stroke="#2088FF" x="7" y="32" width="5" height="5" rx="1"/><path d="M44 28V6a2 2 0 0 0-2-2H21" stroke="#79B8FF" stroke-linecap="round" stroke-linejoin="round"/></g></g></svg>
