<svg width="54" height="42" viewBox="0 0 54 42" fill="none" xmlns="http://www.w3.org/2000/svg"><g clip-path="url(#a)"><path d="M25.91 42c11.598 0 21-9.402 21-21s-9.402-21-21-21-21 9.402-21 21 9.402 21 21 21z" fill="#0B3D91"/><path d="M24.67 4.27a.236.236 0 1 0 0-.472.236.236 0 0 0 0 .472zM27.087 4.583a.236.236 0 1 0 0-.472.236.236 0 0 0 0 .472zM30.257 8.853a.236.236 0 1 0 0-.472.236.236 0 0 0 0 .472zM12.867 30.825a.236.236 0 1 0 0-.472.236.236 0 0 0 0 .472zM13.48 32.709a.236.236 0 1 0 0-.472.236.236 0 0 0 0 .472zM10.56 31.05a.176.176 0 1 0 0-.353.176.176 0 0 0 0 .352zM20.134 34.748a.176.176 0 1 0 0-.353.176.176 0 0 0 0 .353zM35.15 31.63a.176.176 0 1 0 0-.353.176.176 0 0 0 0 .352zM39.514 26.889a.176.176 0 1 0 0-.353.176.176 0 0 0 0 .353zM18.126 10.169a.176.176 0 1 0 0-.352.176.176 0 0 0 0 .352zM22.928 6.643a.176.176 0 1 0 0-.352.176.176 0 0 0 0 .352zM22.406 6.297a.176.176 0 1 0 0-.352.176.176 0 0 0 0 .352zM21.936 5.952a.176.176 0 1 0 0-.353.176.176 0 0 0 0 .353zM18.879 11.08a.176.176 0 1 0 0-.352.176.176 0 0 0 0 .353zM25.953 1.902a.176.176 0 1 0 0-.352.176.176 0 0 0 0 .352zM27.114 6.989a.176.176 0 1 0 0-.353.176.176 0 0 0 0 .353zM25.282 5.995a.176.176 0 1 0 0-.353.176.176 0 0 0 0 .353zM22.143 7.344a.176.176 0 1 0 0-.352.176.176 0 0 0 0 .352zM35.987 36.288a.176.176 0 1 0 0-.353.176.176 0 0 0 0 .353zM12.57 31.96a.176.176 0 1 0 0-.353.176.176 0 0 0 0 .352zM24.842 34.235a.176.176 0 1 0 0-.353.176.176 0 0 0 0 .353zM16.222 31.817a.176.176 0 1 0 0-.352.176.176 0 0 0 0 .352zM17.748 34.31a.176.176 0 1 0 0-.352.176.176 0 0 0 0 .352zM28.986 32.74a.176.176 0 1 0 0-.353.176.176 0 0 0 0 .352zM35.181 29.243a.176.176 0 1 0 0-.353.176.176 0 0 0 0 .353zM39.879 31.39a.176.176 0 1 0 0-.353.176.176 0 0 0 0 .353zM41.48 32.414a.176.176 0 1 0 0-.352.176.176 0 0 0 0 .352zM41.743 29.62a.176.176 0 1 0 0-.352.176.176 0 0 0 0 .353zM18.388 25.665a.176.176 0 1 0 0-.352.176.176 0 0 0 0 .352zM18.454 29.775a.236.236 0 1 0 0-.472.236.236 0 0 0 0 .472zM19.867 32.757a.236.236 0 1 0 0-.473.236.236 0 0 0 0 .473zM36.787 29.648a.236.236 0 1 0 0-.472.236.236 0 0 0 0 .472zM42.876 29.302a.236.236 0 1 0 0-.472.236.236 0 0 0 0 .473zM39.864 28.016a.236.236 0 1 0 0-.472.236.236 0 0 0 0 .472zM36.787 28.143a.236.236 0 1 0 0-.473.236.236 0 0 0 0 .473zM30.442 3.887l.585-.057-.585-.032a.26.26 0 0 0-.222-.216L30.163 3l-.034.587a.259.259 0 0 0-.2.222l-.599.055.602.032c.023.101.105.18.206.199l.054.6.033-.598a.266.266 0 0 0 .217-.21zm-9.881 6.516l.585-.056-.585-.033a.258.258 0 0 0-.223-.215l-.056-.584-.033.587a.259.259 0 0 0-.2.223l-.599.054.602.033c.023.1.105.18.206.198l.055.6.032-.598a.258.258 0 0 0 .216-.209zm21.886 17.233l.585-.056-.585-.033a.257.257 0 0 0-.223-.215l-.056-.584-.032.587a.259.259 0 0 0-.2.223l-.6.054.603.033a.26.26 0 0 0 .205.198l.055.6.032-.598a.262.262 0 0 0 .216-.209zm-23.864 9.01l.585-.057-.585-.033a.26.26 0 0 0-.222-.215l-.057-.582-.032.587a.259.259 0 0 0-.2.222l-.6.055.603.033c.022.1.104.18.205.198l.055.6.032-.598a.262.262 0 0 0 .216-.21zm22.004-4.394l.585-.057-.585-.032a.258.258 0 0 0-.222-.216l-.057-.583-.032.587a.259.259 0 0 0-.2.222l-.6.055.603.032c.022.101.105.18.205.199l.055.6.033-.598a.262.262 0 0 0 .215-.21z" fill="#fff"/><path d="M30.89 15.97c-2.441.95-4.823 1.797-6.833 2.425-4.084 1.277-15.255 4.74-22.004 9.103l.564.219c4.113-2.324 6.785-3.052 9.355-3.862 2.794-.879 11.825-2.992 15.915-4.143 1.383-.389 3-.898 4.714-1.518a41.155 41.155 0 0 0-1.711-2.224zm2.983 4.111A27.04 27.04 0 0 1 32.44 21c-2.009 1.162-11.803 7.847-14.032 9.385-2.23 1.538-8.412 7.377-10.234 9.073l-.063.69c5.87-5.275 7.712-6.575 10.044-8.35 2.888-2.196 8.862-6.261 10.892-7.565a343.023 343.023 0 0 0 5.263-3.438l-.077-.13a45.344 45.344 0 0 0-.36-.584zm9.175-9.691c-2.86 1.676-7.366 3.698-11.739 5.416.104.128.209.257.313.388.49.616.95 1.236 1.384 1.855 3.437-1.266 7.21-2.965 10.202-5.021-1.425 1.351-6.139 4.874-9.013 6.836.149.241.291.482.43.722 4.353-2.913 7.282-5.059 8.99-6.492 2.354-1.978 7.72-6.404 9.762-12.337-3.58 4.552-7.81 7.158-10.329 8.633z" fill="#FC3D21"/><path d="M23.207 26.2c-.464-.584-1.104-1.364-1.584-1.97a36.241 36.241 0 0 1-1.783-2.443l-.532.133a37.57 37.57 0 0 0 2.185 3.056c.581.732 1.11 1.322 1.382 1.688.055.074.164.238.311.457.17-.114.34-.23.514-.349a10.293 10.293 0 0 1-.493-.573zm3.38 3.068c-.38-.359-1.302-.961-2.263-1.863l-.64.442c.62.874 1.465 1.947 2.125 2.26.997.47 1.266-.378.778-.839zm5.035-13.074C26.134 9.286 19.428 5.49 16.537 7.788c-2.247 1.784-1.325 6.997 1.77 12.475.161-.055.318-.11.476-.163-3.124-5.338-3.978-10.297-1.86-11.979 2.662-2.114 9.088 1.696 14.417 8.404a39.803 39.803 0 0 1 2.895 4.14c3.144 5.206 4.11 9.912 1.936 11.835-.665.589-2.696.82-5.358-.38-.037.046.022.173.069.204 2.297.924 4.499 1.276 5.61.393 2.67-2.121.619-9.614-4.87-16.523zm-23.542.82h3.516l2.95 5.007v-3.907c0-.44-.557-1.013-.752-1.098h2.433c-.149.039-.628.619-.628 1.098v5.745c0 .352.51.84.753 1.028H12.96l-2.997-5.03v3.956c0 .391.385.77.785 1.091h-2.59c.37-.157.722-.652.753-1.044.03-.391 0-5.454 0-5.672 0-.485-.462-.877-.832-1.174z" fill="#fff"/><path d="M40.24 24.885h4.677c-.258-.063-.549-.37-.706-.777-.158-.408-2.637-7.094-2.637-7.094h-1.777c-.505.363-1.046.746-1.622 1.15l-.005.042c-.077.47-1.47 5.51-1.554 5.76-.118.346-.722.731-.965.935h2.519c-.252-.283-.455-.558-.41-.871.049-.313.19-.941.19-.941h2.605c.118.313.205.595.251.864.053.32-.275.68-.566.932zm-2.057-2.802l.88-2.872 1.161 2.872h-2.04zm-.395-4.783l.389-.288h-.683c.067.063.18.163.294.288zm-17.89 6.73c.048-.313.189-.941.189-.941h2.605c.118.313.206.595.252.864.054.322-.276.682-.565.934h4.118l.257-.173a1.58 1.58 0 0 1-.404-.605c-.158-.41-2.637-7.095-2.637-7.095h-4.08c.197.181.762.667.674 1.192-.077.47-1.47 5.51-1.553 5.76-.118.346-.722.731-.965.935h2.518c-.251-.283-.455-.558-.409-.871zm1.304-4.82l1.162 2.873h-2.041l.88-2.872zm12.922 1.71c-.768.511-1.58 1.045-2.433 1.603.383.186.688.419.717.72.054.566-1.083.84-2.111.722a2.593 2.593 0 0 1-.6-.149l-.65.416c-.222.142-.492.318-.8.521v.813c.204-.4.65-.758.997-.777.15-.008.668.47 2.803.353 1.035-.057 3.037-1.162 3.006-2.433-.02-.75-.41-1.336-.93-1.79zm-5.875 1.964v.828c.188-.127.375-.25.558-.372a4.121 4.121 0 0 1-.558-.456zm5.144-2.483a6.84 6.84 0 0 0-.593-.311c-1.005-.47-2.057-.558-2.276-1.193-.155-.448.282-.863 1.35-.846 1.068.015 2.056.651 2.323.879v-2.027c-.078.078-.422.474-.737.409a13.835 13.835 0 0 0-2.81-.283c-1.349.009-2.51 1.05-2.55 2.37-.055 1.844 1.42 2.347 2.251 2.636.086.03.184.062.29.096A46.17 46.17 0 0 1 32.438 21c.25-.144.574-.349.954-.599z" fill="#fff"/></g><defs><clipPath id="a"><path fill="#fff" d="M0 0h53.377v42H0z"/></clipPath></defs></svg>