<svg width="56" height="56" viewBox="0 0 56 56" xmlns="http://www.w3.org/2000/svg"><title>Learning GitHub</title><g fill="none" fill-rule="evenodd"><g stroke="#2088FF" stroke-linecap="round" stroke-width="2"><path d="M22 51.012a4 4 0 1 0-8 0"/><path d="M18.002 41.019a3 3 0 1 0 0 5.998 3 3 0 0 0 0-5.998z" stroke-linejoin="round"/></g><g stroke="#2088FF" stroke-linecap="round" stroke-width="2"><path d="M42 51.012a4 4 0 1 0-8 0"/><path d="M38.002 41.019a3 3 0 1 0 0 5.998 3 3 0 0 0 0-5.998z" stroke-linejoin="round"/></g><path stroke="#2088FF" stroke-width="2" stroke-linecap="round" stroke-linejoin="round" d="M26 28h15v-4H26z"/><path d="M38 24a5 5 0 0 0-10 0" stroke="#2088FF" stroke-width="2"/><path d="M33.002 13.003a3 3 0 1 0 0 5.998 3 3 0 0 0 0-5.998z" stroke="#2088FF" stroke-width="2" stroke-linecap="round" stroke-linejoin="round"/><path d="M11.996 39.362A4 4 0 0 0 5 42.012" stroke="#79B8FF" stroke-width="2" stroke-linecap="round"/><path d="M9.002 32.019a3 3 0 1 0 0 5.998 3 3 0 0 0 0-5.998z" stroke="#79B8FF" stroke-width="2" stroke-linecap="round" stroke-linejoin="round"/><path d="M31.006 39.373A3.99 3.99 0 0 0 28 38.012a3.985 3.985 0 0 0-2.989 1.341" stroke="#79B8FF" stroke-width="2" stroke-linecap="round"/><path d="M28.002 32.019a3 3 0 1 0 0 5.998 3 3 0 0 0 0-5.998z" stroke="#79B8FF" stroke-width="2" stroke-linecap="round" stroke-linejoin="round"/><path d="M51 42.012a4 4 0 0 0-6.993-2.653" stroke="#79B8FF" stroke-width="2" stroke-linecap="round"/><path d="M47.002 32.019a3 3 0 1 0 0 5.998 3 3 0 0 0 0-5.998zM45.018 24A1.982 1.982 0 0 0 47 22.018V7a2 2 0 0 0-2-2H11a2 2 0 0 0-2 2v15a2 2 0 0 0 2 2h10" stroke="#79B8FF" stroke-width="2" stroke-linecap="round" stroke-linejoin="round"/><path stroke="#2088FF" stroke-width="2" stroke-linecap="round" stroke-linejoin="round" d="M14.194 13.259L12 11.213l2.046-2.194M25.046 13.259l2.194-2.046-2.046-2.194"/><path d="M21.138 8.019c-1.033 0-1.454.821-1.634 1.412-.019.06-.024.061-.042 0-.182-.59-.707-1.412-1.655-1.412-1.46 0-1.807 1.117-1.807 2.004 0 1.676 2.223 3.228 3.091 3.846.272.197.556.194.817 0 .798-.594 3.092-2.17 3.092-3.846 0-.887-.261-2.004-1.862-2.004z" fill="#2088FF"/></g></svg>
