  <svg width="56" height="56" viewBox="0 0 56 56" xmlns="http://www.w3.org/2000/svg"><title>Migration</title><g fill="none" fill-rule="evenodd"><g stroke-width="2"><g stroke="#79B8FF" stroke-linecap="round"><path d="M44.903 10.962A23.924 23.924 0 0 0 28 4a23.925 23.925 0 0 0-16.987 7.046m.117 34.025A23.91 23.91 0 0 0 28 52c6.646-.001 12.66-2.702 17.006-7.066"/><path stroke-linejoin="round" d="M39 10.986h6v-6M11 50.986v-6h6"/></g><path d="M31 28h-6" stroke="#2088FF" stroke-linecap="round"/><path stroke="#2088FF" d="M5 15h20v26H5z"/><path d="M19 23h2" stroke="#2088FF" stroke-linecap="round"/><path d="M15 28h6M9 23h6" stroke="#79B8FF" stroke-linecap="round"/><path d="M9 28h2" stroke="#2088FF" stroke-linecap="round"/><path d="M9 33h6" stroke="#79B8FF" stroke-linecap="round"/><path d="M19 33h2" stroke="#2088FF" stroke-linecap="round"/><path d="M45 23h2" stroke="#79B8FF" stroke-linecap="round"/><path d="M41 28h6M35 23h6" stroke="#2088FF" stroke-linecap="round"/><path d="M35 28h2" stroke="#79B8FF" stroke-linecap="round"/><path d="M35 33h6" stroke="#2088FF" stroke-linecap="round"/><path d="M45 33h2" stroke="#79B8FF" stroke-linecap="round"/><path stroke="#2088FF" d="M31 15h20v26H31z"/></g></g></svg>
