<svg width="56" height="56" viewBox="0 0 56 56" xmlns="http://www.w3.org/2000/svg"><title>API</title><g fill="none" fill-rule="evenodd"><g stroke-linecap="round" stroke-width="2"><path d="M14 16H5" stroke="#79B8FF"/><path d="M45 45h-5" stroke="#2088FF"/><path d="M16 11h-5" stroke="#79B8FF"/><path d="M51.016 40.02l-9-.013" stroke="#2088FF"/><path d="M17.774 29.78a6 6 0 1 1 8.485 8.485 6 6 0 0 1-8.485-8.484z" stroke="#2088FF" stroke-linejoin="round"/><path stroke="#2088FF" stroke-linejoin="round" d="M33 28l1 3 5 1v4l-5 2-1 2 2 5-2 2-5-2-2 1-2 5h-4l-2-5-2-1-5 2-2-2 2-5-1-2-5-2v-4l5-2 1-2-2-5 2-2 5 2 2-1 2-5h4l2 5 2 1 5-2 2 2z"/><path d="M33.263 16.407c1.74-1.826 4.658-1.842 6.45-.059 1.791 1.783 1.692 4.66-.066 6.413" stroke="#79B8FF" stroke-linejoin="round"/><path stroke="#79B8FF" stroke-linejoin="round" d="M29 13l-2-3 2-2 4 2 2-1 1-4h3l1 4 2 1 4-2 2 2-2 4 1 2 4 1v3l-4 1-1 2 2 4-2 2-4-2"/></g></g></svg>
