<svg width="150" height="30" viewBox="0 0 150 30" fill="none" xmlns="http://www.w3.org/2000/svg"><g clip-path="url(#a)"><path d="M48.745 3.356c-1.572-.684-3.255-1.13-4.753-1.13-2.19 0-3.283.481-3.283 1.348 0 2.48 9.765.488 9.765 5.78 0 2.19-2.005 3.881-6.025 3.881-2.384 0-4.247-.505-6.386-1.69l.882-1.975c1.876 1.068 3.627 1.542 5.518 1.542 2.383 0 3.661-.704 3.661-1.758 0-2.713-9.769-.689-9.769-5.647 0-2.138 1.99-3.61 5.59-3.61 2.153 0 3.964.485 5.695 1.373l-.895 1.886zM59.632 13.3c-3.9 0-7.135-2.664-7.135-6.643 0-3.934 3.235-6.648 7.135-6.648 3.923 0 7.106 2.714 7.106 6.648 0 3.98-3.183 6.643-7.106 6.643zm0-11.147c-2.84 0-4.781 1.971-4.781 4.504 0 2.592 1.856 4.52 4.78 4.52 2.908 0 4.755-1.946 4.755-4.52 0-2.533-1.847-4.504-4.754-4.504zm16.426 11.132c-4.1 0-7.187-2.66-7.187-6.644 0-3.917 3.135-6.632 7.187-6.632 2.416 0 4.147.703 5.699 1.875l-1.208 1.841c-1.13-.888-2.543-1.537-4.425-1.537-2.99 0-4.85 1.936-4.85 4.452 0 2.59 1.876 4.471 4.88 4.471 1.878 0 3.368-.621 4.49-1.51l1.213 1.843c-1.556 1.172-3.383 1.84-5.799 1.84zM84.332.395h2.276v12.554h-2.276V.395zm5.636 12.554V.395h11.152v2.076h-8.879v3.05h6.9v2.072h-6.9v3.28h9.271v2.076H89.968zm20.018-10.491v10.491h-2.267V2.458h-4.994V.394h12.25v2.064h-4.989zm6.816 10.491V.395h11.152v2.076h-8.879v3.05h6.906v2.072h-6.906v3.28h9.27v2.076h-11.543zM45.066 27.807c1.244 0 2.53-.287 3.495-.758V23.4h2.208v4.875c-1.554 1.07-3.69 1.724-5.8 1.724-4.095 0-7.182-2.659-7.182-6.645 0-3.918 3.135-6.627 7.181-6.627 2.37 0 4.15.686 5.704 1.858l-1.207 1.843c-1.133-.888-2.553-1.494-4.434-1.494-2.987-.064-4.844 1.913-4.844 4.42 0 2.598 1.878 4.455 4.879 4.455zm8.694 1.854v-12.55h11.154v2.073h-8.888v3.05h6.91v2.072h-6.91v3.282h9.277v2.073H53.76zm15.997 0h-2.222v-12.55h2.318l7.986 9.459.055-.017a104.151 104.151 0 0 1-.152-6.165v-3.277h2.22v12.55h-2.3l-7.956-9.457-.037.02c.088 1.858.088 5.104.088 6.16v3.277zm13.402 0v-12.55h11.15v2.073h-8.884v3.05h6.908v2.072h-6.908v3.282h9.28v2.073H83.16zm19.875-4.617h-3.66v4.617h-2.271v-12.55h7.87c2.611 0 4.231 1.642 4.231 4.001 0 2.24-1.591 3.578-3.512 3.864l3.644 4.685h-2.844l-3.459-4.617h.001zm1.697-2.092c1.419 0 2.222-.753 2.222-1.839 0-1.19-.705-1.928-1.98-1.928h-5.599v3.768h5.357zm9.258 3.662l-1.404 3.047h-2.457l5.966-12.55h2.386l5.974 12.55h-2.448l-1.41-3.047h-6.607zm.946-2.038h4.717l-2.351-5.086-2.366 5.086zm11.189 5.085v-12.55h2.269v10.477h8.176v2.073h-10.445zm11.98 0v-12.55h11.159v2.073h-8.887v3.05h6.908v2.072h-6.908v3.282h9.277v2.073h-11.549" fill="#000"/><path fill-rule="evenodd" clip-rule="evenodd" d="M0 0h29.266v15.3H0V0z" fill="#ED1A3A"/><path fill-rule="evenodd" clip-rule="evenodd" d="M0 15h29.266v15H0V15z" fill="#000"/><path d="M5.114 15h19.04" stroke="#fff" stroke-width="1.725" stroke-miterlimit="10"/></g><defs><clipPath id="a"><path fill="#fff" d="M0 0h149.652v30H0z"/></clipPath></defs></svg>