<svg width="107" height="32" viewBox="0 0 107 32" fill="none" xmlns="http://www.w3.org/2000/svg"><g clip-path="url(#a)"><path d="M16 .053C7.19.053.047 7.194.047 16.003c0 8.81 7.142 15.951 15.951 15.951 8.81 0 15.952-7.14 15.952-15.95 0-8.81-7.141-15.95-15.952-15.95V.053zm7.314 23.006a.994.994 0 0 1-1.367.329c-3.745-2.288-8.46-2.806-14.012-1.537a.994.994 0 0 1-.443-1.94c6.076-1.387 11.288-.79 15.493 1.78.468.288.617.899.33 1.367zm1.953-4.344c-.36.585-1.126.77-1.71.41-4.288-2.635-10.824-3.399-15.896-1.86a1.245 1.245 0 0 1-1.552-.828 1.245 1.245 0 0 1 .83-1.55c5.793-1.758 12.994-.907 17.918 2.119.585.36.77 1.125.41 1.71zm.167-4.522c-5.14-3.054-13.622-3.335-18.53-1.845a1.492 1.492 0 1 1-.867-2.855c5.635-1.71 15.001-1.38 20.92 2.133.71.421.943 1.337.522 2.045a1.49 1.49 0 0 1-2.044.522zm18.012.585c-2.754-.657-3.244-1.118-3.244-2.087 0-.915.861-1.53 2.143-1.53 1.242 0 2.472.467 3.764 1.43.038.029.087.04.135.033a.178.178 0 0 0 .12-.074l1.345-1.895a.18.18 0 0 0-.035-.245c-1.537-1.233-3.266-1.833-5.29-1.833-2.972 0-5.05 1.785-5.05 4.338 0 2.738 1.792 3.708 4.889 4.456 2.634.607 3.08 1.116 3.08 2.025 0 1.007-.899 1.634-2.347 1.634-1.607 0-2.92-.543-4.386-1.812a.186.186 0 0 0-.132-.043.178.178 0 0 0-.124.063l-1.508 1.794a.181.181 0 0 0 .017.251c1.707 1.524 3.806 2.328 6.072 2.328 3.204 0 5.275-1.75 5.275-4.461.005-2.287-1.364-3.554-4.718-4.37l-.006-.002zm11.973-2.716c-1.388 0-2.527.547-3.468 1.668v-1.262c0-.1-.08-.181-.18-.181h-2.466a.18.18 0 0 0-.18.18v14.02c0 .1.08.181.18.181h2.467a.18.18 0 0 0 .179-.181v-4.425c.94 1.054 2.08 1.57 3.468 1.57 2.581 0 5.195-1.987 5.195-5.785.003-3.798-2.61-5.786-5.193-5.786h-.002zm2.326 5.785c0 1.933-1.19 3.284-2.897 3.284-1.686 0-2.958-1.412-2.958-3.284 0-1.872 1.272-3.283 2.958-3.283 1.678 0 2.897 1.38 2.897 3.283zm9.564-5.786c-3.324 0-5.928 2.56-5.928 5.828 0 3.232 2.587 5.764 5.888 5.764 3.335 0 5.946-2.55 5.946-5.806 0-3.244-2.594-5.785-5.906-5.785zm0 9.089c-1.768 0-3.101-1.421-3.101-3.304 0-1.891 1.287-3.263 3.06-3.263 1.78 0 3.12 1.42 3.12 3.305 0 1.89-1.294 3.262-3.08 3.262zm13.004-8.863h-2.715V9.513c0-.1-.08-.181-.179-.181h-2.466a.182.182 0 0 0-.181.18v2.775h-1.185a.18.18 0 0 0-.18.18v2.12c0 .1.08.181.18.181h1.185v5.485c0 2.215 1.102 3.339 3.28 3.339.883 0 1.617-.183 2.308-.575a.177.177 0 0 0 .092-.157v-2.019a.18.18 0 0 0-.261-.16 3.113 3.113 0 0 1-1.448.349c-.79 0-1.145-.36-1.145-1.164V14.77h2.715c.099 0 .179-.081.179-.18v-2.12a.175.175 0 0 0-.178-.18l-.001-.002zm9.455.01v-.34c0-1.002.385-1.45 1.245-1.45.515 0 .928.103 1.391.257a.179.179 0 0 0 .236-.172V8.514c0-.08-.05-.15-.127-.173a6.756 6.756 0 0 0-2.05-.295c-2.276 0-3.482 1.283-3.482 3.709v.521h-1.185c-.099 0-.18.082-.18.18v2.131c0 .1.081.181.18.181h1.185v8.458c0 .101.082.181.181.181h2.465a.18.18 0 0 0 .18-.18v-8.458h2.304l3.527 8.457c-.4.888-.794 1.065-1.331 1.065-.434 0-.894-.13-1.36-.387a.196.196 0 0 0-.143-.013.18.18 0 0 0-.107.097l-.836 1.834a.18.18 0 0 0 .078.235c.873.472 1.66.674 2.633.674 1.82 0 2.828-.85 3.714-3.132l4.278-11.054a.177.177 0 0 0-.019-.168.176.176 0 0 0-.147-.079h-2.567a.18.18 0 0 0-.172.122l-2.63 7.51-2.88-7.515a.18.18 0 0 0-.168-.116h-4.213v-.001zm-5.482-.01h-2.467a.182.182 0 0 0-.18.18v10.76c0 .1.081.18.18.18h2.467a.18.18 0 0 0 .18-.18V12.468c0-.1-.08-.181-.18-.181v-.001zm-1.22-4.899a1.768 1.768 0 1 0-.001 3.537 1.768 1.768 0 0 0 .002-3.537zm21.605 8.358a1.73 1.73 0 0 1-1.736-1.735c0-.952.77-1.745 1.745-1.745.975 0 1.735.784 1.735 1.735 0 .952-.769 1.745-1.744 1.745zm.009-3.307c-.889 0-1.562.706-1.562 1.572a1.54 1.54 0 0 0 1.553 1.562c.889 0 1.562-.706 1.562-1.572a1.54 1.54 0 0 0-1.553-1.562zm.385 1.74l.491.688h-.415l-.442-.631h-.379v.63h-.347v-1.821h.812c.425 0 .703.216.703.58.002.3-.172.482-.421.554h-.002zm-.293-.822h-.452v.577h.452c.224 0 .36-.11.36-.289 0-.187-.136-.288-.36-.288z" fill="#1ED760"/></g><defs><clipPath id="a"><path fill="#fff" d="M0 0h106.476v32H0z"/></clipPath></defs></svg>